# xmcd
#
# Track frame offsets: 
#        150
#        19738
#        41504
#        73795
#        96105
#        111820
#        129548
#        160485
#        177430
#        199675
#        228497
#        253200
#        270225
#        287007
#
# Disc length: 4111 seconds
#
# Revision: 0
# Processed by: cddbd v1.5.2PL0 Copyright (c) Steve Scherf et al.
# Submitted via: ExactAudioCopy v0.99pb5
#
DISCID=c7100d0e
DTITLE=Norman Sylvester Band - On The Right Track
DYEAR=1990
DGENRE=Blues
TTITLE0=The Blues Won't Get Old
TTITLE1=A Piece Of The Action
TTITLE2=Where Can I Hide
TTITLE3=The Thrill Is Gone And I Don't Want It Back
TTITLE4=Giving Up On Love
TTITLE5=On The Right Track
TTITLE6=Blues Junkie
TTITLE7=Hard Times
TTITLE8=Look On The Bright Side
TTITLE9=Barrelhouse Shuffle
TTITLE10=Let's Rock
TTITLE11=You Can't Stop Me Baby
TTITLE12=Giving Up On Love (Bonus Track)
TTITLE13=Look On The Bright Side (Bonus Track)
EXTD=
EXTT0=
EXTT1=
EXTT2=
EXTT3=
EXTT4=
EXTT5=
EXTT6=
EXTT7=
EXTT8=
EXTT9=
EXTT10=
EXTT11=
EXTT12=
EXTT13=
PLAYORDER=
